<?xml version="1.0" encoding="UTF-8" standalone="no"?>
<!-- Created with Inkscape (http://www.inkscape.org/) -->

<svg
   xmlns:dc="http://purl.org/dc/elements/1.1/"
   xmlns:cc="http://creativecommons.org/ns#"
   xmlns:rdf="http://www.w3.org/1999/02/22-rdf-syntax-ns#"
   xmlns:svg="http://www.w3.org/2000/svg"
   xmlns="http://www.w3.org/2000/svg"
   xmlns:sodipodi="http://sodipodi.sourceforge.net/DTD/sodipodi-0.dtd"
   xmlns:inkscape="http://www.inkscape.org/namespaces/inkscape"
   width="8mm"
   height="8mm"
   viewBox="0 0 84.547028 84.538094"
   version="1.1"
   id="svg6349"
   inkscape:version="0.92.0 unknown"
   sodipodi:docname="google.svg">
  <defs
     id="defs6343" />
  <sodipodi:namedview
     id="base"
     pagecolor="#ffffff"
     bordercolor="#666666"
     borderopacity="1.0"
     inkscape:pageopacity="0.0"
     inkscape:pageshadow="2"
     inkscape:zoom="0.7"
     inkscape:cx="153.11471"
     inkscape:cy="187.76442"
     inkscape:document-units="mm"
     inkscape:current-layer="layer1"
     showgrid="false"
     fit-margin-top="0"
     fit-margin-left="0"
     fit-margin-right="0"
     fit-margin-bottom="0"
     inkscape:window-width="986"
     inkscape:window-height="661"
     inkscape:window-x="405"
     inkscape:window-y="270"
     inkscape:window-maximized="0" />
  <metadata
     id="metadata6346">
    <rdf:RDF>
      <cc:Work
         rdf:about="">
        <dc:format>image/svg+xml</dc:format>
        <dc:type
           rdf:resource="http://purl.org/dc/dcmitype/StillImage" />
        <dc:title />
      </cc:Work>
    </rdf:RDF>
  </metadata>
  <g
     inkscape:label="Capa 1"
     inkscape:groupmode="layer"
     id="layer1"
     transform="translate(5.2318481,-5.2666663)">
    <ellipse
       style="opacity:1;fill:#f9f9f9;fill-opacity:0.98828125;fill-rule:nonzero;stroke:none;stroke-width:0.2203469;stroke-miterlimit:4;stroke-dasharray:none;stroke-opacity:1"
       id="path6923"
       cx="36.723511"
       cy="47.471428"
       rx="35.529762"
       ry="37.892113" />
    <path
       style="fill:#e3411f;fill-opacity:1;stroke-width:0.35277778"
       d="M 29.464735,89.305434 C 23.982885,88.308116 18.444335,86.044566 13.413337,82.745426 9.7230069,80.325436 4.3724954,74.939305 1.8065954,71.061416 -7.7603948,56.602656 -7.5584648,37.646716 2.3146454,23.364745 4.7802449,19.798104 10.975415,13.926115 14.715596,11.610715 26.809355,4.1238547 41.609295,3.2145647 54.864737,9.1439848 c 3.634208,1.6256602 8.944848,5.3670402 12.094559,8.5206502 6.024899,6.032479 9.896049,13.26182 11.734729,21.914661 0.816242,3.84116 0.83036,11.6625 0.0286,15.79558 -3.362261,17.33124 -17.099319,30.942809 -34.24569,33.932889 -3.80537,0.663602 -11.358321,0.662421 -15.012141,-0.0021 z m 4.602202,-21.733079 c 3.966019,-1.82554 5.982779,-4.552389 5.979149,-8.084309 -0.004,-3.575661 -0.448651,-4.447 -4.041881,-7.91432 -1.80967,-1.74625 -3.479228,-3.546972 -3.71017,-4.001601 -0.683911,-1.346509 -0.11965,-2.462331 2.5908,-5.123039 2.942,-2.888031 3.537871,-4.31791 3.342212,-8.02055 l -0.119272,-2.257571 h 2.822231 2.822229 l 0.176371,4.05693 c 0.143171,3.2926 0.2761,4.056939 0.705569,4.056939 0.429472,0 0.562401,-0.764339 0.70556,-4.056939 l 0.176371,-4.05693 4.233341,-0.17639 c 3.939379,-0.164139 4.233328,-0.225401 4.233328,-0.88196 0,-0.66166 -0.268179,-0.7117 -4.310409,-0.80451 l -4.31043,-0.099 -0.0993,-4.13436 c -0.0815,-3.39569 -0.19386,-4.13438 -0.62846,-4.13438 -0.429469,0 -0.562398,0.76435 -0.705569,4.05694 l -0.176371,4.05695 -3.72748,0.0995 c -3.33308,0.089 -3.794008,0.026 -4.3561,-0.59513 -0.87635,-0.96837 -0.427159,-1.44462 1.362531,-1.44462 1.019471,0 1.80464,-0.23609 2.360429,-0.70975 l 0.832832,-0.70975 -7.761102,0.0924 c -7.40569,0.0882 -7.833821,0.1309 -9.34861,0.93309 -2.672849,1.41546 -4.153139,2.80562 -5.143949,4.830719 -0.81349,1.662742 -0.922871,2.250022 -0.77107,4.140649 0.39407,4.909551 3.49004,7.887722 8.861001,8.523931 l 2.06407,0.244491 -0.236731,1.578549 c -0.18579,1.23902 -0.0783,1.882531 0.500039,2.992022 0.40523,0.77742 0.65954,1.538478 0.565099,1.691248 -0.0944,0.152781 -1.327658,0.37097 -2.740509,0.484871 -6.65969,0.536921 -11.4069,3.879929 -11.834909,8.33421 -0.212199,2.20838 0.321909,3.571939 1.96379,5.013529 2.604709,2.28699 5.876951,3.142012 11.535669,3.014242 3.670921,-0.0829 4.49323,-0.21522 6.189702,-0.99609 z m -11.1286,-1.14078 c -2.067791,-0.977561 -3.451571,-2.34832 -4.214621,-4.174979 -1.036401,-2.48112 -0.49843,-4.51621 1.77659,-6.72029 2.02862,-1.965391 4.606641,-2.816172 8.09102,-2.670122 2.73281,0.114562 2.911679,0.176421 5.168591,1.787282 3.832159,2.73522 4.773419,5.988269 2.646029,9.14505 -1.68814,2.505059 -4.111691,3.47068 -8.705109,3.46842 -2.417712,-0.0011 -3.34033,-0.16302 -4.7625,-0.835361 z m 3.446968,-22.457021 c -1.80697,-0.917498 -3.470281,-2.746179 -4.462749,-4.90651 -0.552561,-1.202748 -0.738881,-2.319729 -0.74285,-4.453408 -0.005,-2.520101 0.10626,-3.016491 0.963381,-4.311691 1.288888,-1.94764 2.729698,-2.66593 4.924499,-2.45505 3.049849,0.29305 6.188009,3.6918 7.007809,7.589759 1.287331,6.120982 -3.023438,10.906432 -7.69009,8.5369 z"
       id="path4521-6-7-5"
       inkscape:connector-curvature="0"
       sodipodi:nodetypes="cscccscccsccccscscccccsccsscccsccccscccccccccccccscscsccccccscccscsc" />
  </g>
</svg>
