<?xml version="1.0" encoding="UTF-8" standalone="no"?>
<!-- Created with Inkscape (http://www.inkscape.org/) -->

<svg
   xmlns:dc="http://purl.org/dc/elements/1.1/"
   xmlns:cc="http://creativecommons.org/ns#"
   xmlns:rdf="http://www.w3.org/1999/02/22-rdf-syntax-ns#"
   xmlns:svg="http://www.w3.org/2000/svg"
   xmlns="http://www.w3.org/2000/svg"
   xmlns:sodipodi="http://sodipodi.sourceforge.net/DTD/sodipodi-0.dtd"
   xmlns:inkscape="http://www.inkscape.org/namespaces/inkscape"
   width="84.609207mm"
   height="84.510025mm"
   viewBox="0 0 84.609207 84.510025"
   version="1.1"
   id="svg5179"
   inkscape:version="0.92.0 unknown"
   sodipodi:docname="twitter.svg">
  <defs
     id="defs5173" />
  <sodipodi:namedview
     id="base"
     pagecolor="#ffffff"
     bordercolor="#666666"
     borderopacity="1.0"
     inkscape:pageopacity="0.0"
     inkscape:pageshadow="2"
     inkscape:zoom="1.4"
     inkscape:cx="191.09536"
     inkscape:cy="121.43295"
     inkscape:document-units="mm"
     inkscape:current-layer="layer1"
     showgrid="false"
     fit-margin-top="0"
     fit-margin-left="0"
     fit-margin-right="0"
     fit-margin-bottom="0"
     inkscape:window-width="1920"
     inkscape:window-height="1053"
     inkscape:window-x="0"
     inkscape:window-y="0"
     inkscape:window-maximized="1" />
  <metadata
     id="metadata5176">
    <rdf:RDF>
      <cc:Work
         rdf:about="">
        <dc:format>image/svg+xml</dc:format>
        <dc:type
           rdf:resource="http://purl.org/dc/dcmitype/StillImage" />
        <dc:title></dc:title>
      </cc:Work>
    </rdf:RDF>
  </metadata>
  <g
     inkscape:label="Capa 1"
     inkscape:groupmode="layer"
     id="layer1"
     transform="translate(-25.731111,-50.637845)">
    <ellipse
       style="opacity:1;fill:#f9f9f9;fill-opacity:0.98828125;fill-rule:nonzero;stroke:none;stroke-width:0.2203469;stroke-miterlimit:4;stroke-dasharray:none;stroke-opacity:1"
       id="path6923"
       cx="67.875458"
       cy="93.28701"
       rx="35.529762"
       ry="37.892113" />
    <path
       style="fill:#1cb7eb;fill-opacity:1;stroke-width:0.35277778"
       d="m 62.892711,134.85739 c -8.72612,-1.0119 -17.41596,-5.14734 -23.99149,-11.41743 -8.72477,-8.31949 -13.17011,-18.68106 -13.17011,-30.697991 0,-11.24363 3.98108,-21.17012 11.7257,-29.23711 6.4313,-6.699011 15.04264,-11.199401 24.13928,-12.615491 1.48484,-0.23114 4.78371,-0.3134 8.14091,-0.20298 6.26785,0.20614 9.87512,0.97868 15.09626,3.23304 8.60323,3.71467 16.858719,11.504111 20.955449,19.772551 6.02481,12.15979 6.07021,25.75687 0.12596,37.747211 -2.50444,5.05179 -4.53109,7.80467 -8.715409,11.83838 -3.78234,3.64617 -6.47773,5.51743 -11.18856,7.76763 -7.19211,3.4354 -15.10906,4.74091 -23.11799,3.81219 z m 4.90401,-22.38612 c 4.93915,-1.26775 10.19892,-4.32678 13.4851,-7.84281 4.72956,-5.060321 8.02534,-12.939971 8.03186,-19.202721 l 0.004,-2.37736 2.20485,-2.13655 2.20486,-2.13654 -2.02846,0.23302 c -2.48952,0.28598 -2.58413,-0.0485 -0.61739,-2.1822 1.49935,-1.62659 1.83347,-2.5002 0.79375,-2.07548 -0.33954,0.13871 -1.53404,0.56845 -2.65443,0.95499 l -2.0371,0.70278 -1.22386,-0.93348 c -3.47779,-2.65265 -7.35238,-3.07384 -11.09096,-1.20567 -3.4611,1.72953 -5.23013,4.62433 -5.27998,8.63994 -0.0346,2.78611 -0.33437,3.03533 -3.11295,2.58785 -6.17272,-0.99392 -11.54673,-3.64064 -16.40072,-8.07692 -1.07593,-0.98333 -2.04555,-1.78787 -2.15474,-1.78787 -0.35915,0 -0.93329,2.61431 -0.9353,4.25869 -0.003,2.32719 0.90038,4.63699 2.54296,6.50304 1.7322,1.96789 1.48254,2.65813 -0.72244,1.9975 -0.75637,-0.22661 -1.47582,-0.41201 -1.59883,-0.41201 -0.54935,0 -0.13216,1.8343 0.87609,3.852 1.10977,2.22085 2.66737,3.69093 4.8831,4.60871 1.82488,0.75589 1.21026,1.76985 -1.07281,1.76985 -1.28902,0 -1.2859,0.24571 0.0262,2.056931 1.30677,1.80396 3.40193,3.22158 5.57773,3.77405 2.47004,0.62716 2.25393,1.43943 -0.81251,3.05382 -2.78942,1.46856 -6.07806,2.40408 -8.45098,2.40408 -0.88175,0 -1.60319,0.13632 -1.60319,0.30293 0,0.68288 5.87233,2.62122 10.23057,3.37693 1.79147,0.31064 8.71425,-0.13722 10.9361,-0.7075 z"
       id="path4521-6-7"
       inkscape:connector-curvature="0"
       sodipodi:nodetypes="csssccscsccccccccccccccsccccscccsccscccssccc" />
    <circle
       style="opacity:1;fill:#000000;fill-opacity:0;fill-rule:nonzero;stroke:none;stroke-width:0.18520832;stroke-miterlimit:4;stroke-dasharray:none;stroke-opacity:1"
       id="path6919"
       cx="67.497475"
       cy="92.436546"
       r="37.230652" />
    <ellipse
       style="opacity:1;fill:#000000;fill-opacity:0;fill-rule:nonzero;stroke:none;stroke-width:0.18520832;stroke-miterlimit:4;stroke-dasharray:none;stroke-opacity:1"
       id="path6921"
       cx="66.836021"
       cy="91.302628"
       rx="25.796875"
       ry="30.427082" />
  </g>
</svg>
